<svg width="260" height="61" viewBox="0 0 260 61" fill="none" xmlns="http://www.w3.org/2000/svg">
<g clip-path="url(#clip0_9_4792)">
<path d="M46.4408 34.1088C44.7903 25.8025 52.6744 20.9309 52.6744 20.9309C52.6744 20.9309 49.6027 16.4868 44.4402 15.3435C39.2803 14.1977 36.6978 15.6293 34.1203 16.703C31.5404 17.7793 30.253 17.7793 30.253 17.7793C26.5299 17.7793 23.8082 13.8373 16.7147 15.6319C11.8277 16.8652 6.68317 22.5067 5.75367 29.2398C4.82417 35.9755 6.82999 44.5702 10.6973 51.2313C14.5646 57.8975 18.5042 60.4028 21.3003 60.4749C24.0966 60.5443 26.8877 58.4717 30.253 57.967C33.6209 57.4674 35.6936 59.1875 38.997 60.117C42.2876 61.044 43.4411 60.184 47.2312 56.9603C51.0316 53.7365 54.4716 44.4905 54.4716 44.4905C54.4716 44.4905 48.0912 42.4202 46.4408 34.1088Z" fill="white"/>
<path d="M39.1335 9.96983C42.7896 6.24419 41.5512 0.476562 41.5512 0.476562C41.5512 0.476562 36.4171 1.37777 32.9771 4.95671C29.5397 8.53828 30.1087 14.1951 30.1087 14.1951C30.1087 14.1951 35.4772 13.6931 39.1335 9.96983Z" fill="white"/>
</g>
<path d="M100 33.3711V50.8478L124.951 54.4307V33.3711H100Z" fill="white"/>
<path d="M124.951 6.52637L100 10.1092V27.5859H124.951V6.52637Z" fill="white"/>
<path d="M160 27.5853V1.19727L130.741 5.39668V27.5853H160Z" fill="white"/>
<path d="M130.741 55.5597L160 59.7549V33.3711H130.741V55.5597Z" fill="white"/>
<g clip-path="url(#clip1_9_4792)">
<path d="M208.329 19.9121C207.295 19.9121 206.418 20.2726 205.697 20.9936C204.976 21.7147 204.615 22.5799 204.615 23.5897V39.0944C204.615 40.1295 204.976 41.0059 205.697 41.727C206.418 42.448 207.295 42.8087 208.329 42.8087C209.362 42.8087 210.234 42.4481 210.944 41.727C211.652 41.006 212.007 40.1295 212.007 39.0944V23.5897C212.007 22.5798 211.647 21.7147 210.926 20.9936C210.204 20.2726 209.339 19.9121 208.329 19.9121Z" fill="white"/>
<path d="M238.185 5.99291L240.745 1.27014C240.913 0.957473 240.853 0.717711 240.565 0.549118C240.252 0.403742 240.012 0.477406 239.844 0.764904L237.248 5.52543C234.964 4.5155 232.548 4.00961 230 4.00961C227.452 4.00961 225.036 4.51561 222.752 5.52543L220.156 0.764904C219.988 0.477406 219.747 0.404393 219.435 0.549118C219.146 0.71847 219.087 0.957473 219.255 1.27014L221.816 5.99291C219.22 7.31681 217.152 9.1606 215.614 11.5283C214.075 13.8973 213.306 16.486 213.306 19.2992H246.658C246.658 16.4867 245.889 13.8978 244.35 11.5283C242.812 9.1606 240.756 7.31681 238.185 5.99291ZM223.383 12.8623C223.106 13.1398 222.776 13.2779 222.391 13.2779C222.006 13.2779 221.682 13.1398 221.418 12.8623C221.153 12.586 221.021 12.2567 221.021 11.871C221.021 11.4866 221.153 11.1566 221.418 10.8797C221.682 10.6035 222.007 10.4654 222.391 10.4654C222.776 10.4654 223.106 10.6035 223.383 10.8797C223.659 11.1572 223.798 11.4866 223.798 11.871C223.797 12.256 223.659 12.586 223.383 12.8623ZM238.581 12.8623C238.316 13.1398 237.991 13.2779 237.608 13.2779C237.222 13.2779 236.892 13.1398 236.616 12.8623C236.339 12.586 236.201 12.2567 236.201 11.871C236.201 11.4866 236.339 11.1566 236.616 10.8797C236.892 10.6035 237.222 10.4654 237.608 10.4654C237.992 10.4654 238.316 10.6035 238.581 10.8797C238.845 11.1572 238.977 11.4866 238.977 11.871C238.977 12.256 238.845 12.586 238.581 12.8623Z" fill="white"/>
<path d="M213.449 44.6103C213.449 45.7171 213.834 46.654 214.602 47.4229C215.372 48.1918 216.309 48.5761 217.415 48.5761H220.083L220.12 56.7621C220.12 57.7958 220.48 58.6736 221.201 59.3947C221.922 60.1158 222.788 60.4764 223.798 60.4764C224.831 60.4764 225.708 60.1158 226.429 59.3947C227.151 58.6736 227.511 57.7959 227.511 56.7621V48.5769H232.487V56.7621C232.487 57.7958 232.847 58.6736 233.568 59.3947C234.29 60.1158 235.166 60.4764 236.2 60.4764C237.234 60.4764 238.111 60.1158 238.832 59.3947C239.553 58.6736 239.914 57.7959 239.914 56.7621V48.5769H242.618C243.7 48.5769 244.625 48.1924 245.395 47.4235C246.164 46.6547 246.548 45.7178 246.548 44.6111V20.5957H213.449V44.6103Z" fill="white"/>
<path d="M251.671 19.9121C250.661 19.9121 249.796 20.2673 249.075 20.9757C248.354 21.6855 247.993 22.5573 247.993 23.5897V39.0944C247.993 40.1295 248.354 41.0059 249.075 41.727C249.796 42.4481 250.662 42.8087 251.671 42.8087C252.704 42.8087 253.582 42.4481 254.303 41.727C255.024 41.0059 255.384 40.1295 255.384 39.0944V23.5897C255.384 22.5572 255.024 21.6855 254.303 20.9757C253.582 20.2673 252.704 19.9121 251.671 19.9121Z" fill="white"/>
</g>
<defs>
<clipPath id="clip0_9_4792">
<rect width="60" height="60" fill="white" transform="translate(0 0.476562)"/>
</clipPath>
<clipPath id="clip1_9_4792">
<rect width="60" height="60" fill="white" transform="translate(200 0.476562)"/>
</clipPath>
</defs>
</svg>
